<?xml version="1.0" encoding="utf-8"?>
<!-- Generator: Adobe Illustrator 21.0.2, SVG Export Plug-In . SVG Version: 6.00 Build 0)  -->
<svg version="1.1" id="Layer_1" xmlns="http://www.w3.org/2000/svg" xmlns:xlink="http://www.w3.org/1999/xlink" x="0px" y="0px"
	 viewBox="0 0 1091.8 461.9" style="enable-background:new 0 0 1091.8 461.9;" xml:space="preserve">
<style type="text/css">
	.st0{fill:#FFFFFF;}
</style>
<path class="st0" d="M552.5,378.6c-4-0.9-7.9-1.9-11.9-2.7c-63.2-12-108.6-58.5-117.5-122.5c-11.5-82.8,43.6-154.4,123.5-166.2
	c2-0.3,4-1.1,6-1.7c12,0,24,0,36,0c3.8,0.9,7.5,1.9,11.4,2.6c16.9,3,32.5,9.4,47.2,18.3c2.7,1.6,3.9,3.4,3.9,6.7
	c-0.2,16.3-0.1,32.6-0.1,49.5c-5.3-4.2-10.1-8.2-15.1-12c-26.5-20.3-56.1-27.9-88.9-21.2c-34.6,7-58.2,27.7-70.6,60.5
	c-10.3,27.1-10.4,54.8-1.4,82.3c12.6,38.4,46.3,62.1,88.9,63.9c30,1.2,55.9-8.2,78.7-27.3c2.7-2.3,5.4-4.5,8.1-6.7
	c0.1-0.1,0.3-0.1,0.9-0.3c0.1,1.5,0.3,2.8,0.3,4.2c0,14.5-0.1,29,0.1,43.5c0.1,3.7-1.2,5.6-4.3,7.4c-17.4,10.3-35.7,17.7-55.9,20.4
	c-1.4,0.2-2.7,0.9-4,1.3C575.9,378.6,564.2,378.6,552.5,378.6z"/>
<path class="st0" d="M267.5,85.6c4.1,0.9,8.2,2,12.4,2.7c16.7,3.1,32.2,9.5,46.6,18.6c1.5,1,3.2,3.2,3.3,4.8
	c0.2,16.8,0.1,33.6,0.1,50.7c-7.5-5.7-14.6-11.5-22-16.6c-27.4-18.7-57.5-23.2-89.2-14.6c-38.7,10.5-65.3,43.7-69.9,85.4
	c-2.5,23-0.6,45.4,9.7,66.3c17.2,35,46.5,51,84.7,53.1c32.6,1.8,59.8-10.2,83.7-31.5c1-0.9,2-1.7,3.5-3.1c0.2,1.6,0.4,2.8,0.4,4
	c0,14.8-0.1,29.7,0.1,44.5c0,3.3-1.1,5.1-3.8,6.7c-17.4,10.3-35.7,17.9-55.9,20.5c-1.5,0.2-3,0.9-4.5,1.4c-12,0-24,0-36,0
	c-2-0.6-3.9-1.5-5.9-1.8c-63.4-8.8-113.3-58.4-122.4-121.8c-0.3-1.9-1.1-3.7-1.7-5.5c0-11.3,0-22.7,0-34c0.5-1.7,1.3-3.3,1.6-5
	c9.9-65.2,58.9-114,124-123.4c1.9-0.3,3.6-1.1,5.4-1.6C243.5,85.6,255.5,85.6,267.5,85.6z"/>
<path class="st0" d="M1000.5,371.6c-14.8,0-29.6,0-45,0c0-78.6,0-156.8,0-235.3c-58.3,0-116,0-174.7,0c1.9-3.5,3.4-6.4,5-9.2
	c5.8-10.1,11.5-20.3,17.4-30.3c0.9-1.5,3.1-3.2,4.7-3.2c64.1-0.1,128.3-0.1,192.4,0C1000.5,186.3,1000.5,278.9,1000.5,371.6z"/>
<path class="st0" d="M825.5,378.6c-1.7-0.6-3.3-1.4-5-1.7c-50.9-9.8-84.5-57.4-77-109.3c7.2-50.3,54-86.6,104.8-81.3
	c47.2,4.9,84.6,43.9,86.4,90c2,50.2-30.4,91.7-78.7,100.8c-1.9,0.4-3.7,1-5.5,1.6C842.2,378.6,833.9,378.6,825.5,378.6z
	 M895.4,282.3c0-31.3-25.5-57.4-56.5-57.5c-30.9-0.2-56.7,25.8-56.8,57.2c-0.1,31.4,25.4,57.4,56.4,57.5
	C869.5,339.6,895.4,313.6,895.4,282.3z"/>
</svg>
