<?xml version="1.0" encoding="utf-8"?>
<!-- Generator: Adobe Illustrator 21.0.2, SVG Export Plug-In . SVG Version: 6.00 Build 0)  -->
<svg version="1.1" id="Layer_1" xmlns="http://www.w3.org/2000/svg" xmlns:xlink="http://www.w3.org/1999/xlink" x="0px" y="0px"
	 viewBox="0 0 100 98" style="enable-background:new 0 0 100 98;" xml:space="preserve">
<g>
	<path d="M79.2,33h-4.5l3.8-1.9c1-0.4,1.7-1.3,2.1-2.4c0.3-1,0.3-2.2-0.1-3.1c-0.6-1.3-1.8-2.1-3.3-2.1c-0.7,0-1.3,0.2-2,0.4
		l-19.2,9h-5.8h-5.7l-19.2-9c-0.7-0.3-1.4-0.5-2-0.5c-1.5,0-2.7,0.8-3.3,2.1c-0.4,0.9-0.5,2.1-0.1,3.1c0.4,1.1,1.1,2,2.1,2.4
		l3.8,1.9h-4.6c-2.2,0-4,1.8-4,4s1.8,4,4,4h18.7l1.9,8.3L42,50L28.8,76.2c-0.5,1-0.5,2.1-0.1,3.2c0.4,1,1.1,1.7,2,2.2
		c0.6,0.3,1.2,0.4,1.8,0.4c1.6,0,3.1-0.9,3.8-2.2l6.9-13.2V83c0,2.2,1.8,4,4,4c1.2,0,2.3-0.5,3-1.4c0.7,0.8,1.8,1.4,3,1.4
		c2.2,0,4-1.8,4-4V66.6l6.9,13.2c0.7,1.3,2.1,2.2,3.8,2.2c0.7,0,1.3-0.1,1.8-0.4c2-1,2.9-3.4,1.9-5.4L58.4,50.1l0.1-0.8l1.9-8.3
		h18.8c2.2,0,4-1.8,4-4S81.4,33,79.2,33z M76,25.8c0.4-0.2,0.8-0.3,1.2-0.3c0.6,0,1.2,0.3,1.5,0.9c0.5,1,0,2.4-1,2.9L70.2,33h-9.5
		L76,25.8z M22.8,29.3c-1-0.5-1.5-1.9-1-2.9c0.3-0.6,0.9-0.9,1.5-0.9c0.4,0,0.8,0.1,1.2,0.3L39.8,33h-9.6L22.8,29.3z M34.5,78.9
		c-0.3,0.7-1.2,1.1-2,1.1c-0.3,0-0.7-0.1-0.9-0.2c-1-0.5-1.5-1.7-1-2.7l12.2-24l0.5,2v7.2L34.5,78.9z M69.9,77.1c0.5,1,0,2.2-1,2.7
		c-0.3,0.1-0.7,0.2-1,0.2c-0.8,0-1.6-0.4-2-1.1l-8.7-16.6v-7.2l0.5-2L69.9,77.1z M79.2,39H58.5l-1.9,9.9l-1.4,5.9v3.7l0,0V83
		c0,1.1-0.9,2-2,2s-2-0.9-2-2V62h-2v21c0,1.1-0.9,2-2,2s-2-0.9-2-2V64v-5.5V55l-1.3-5.7l-2-10.3H21.2c-1.1,0-2-0.9-2-2s0.9-2,2-2h8
		h5.1H44h12.3H66h8.2h5c1.1,0,2,0.9,2,2S80.3,39,79.2,39z"/>
	<path d="M56.2,27c0-3.3-2.7-6-6-6c-3.3,0-6,2.7-6,6s2.7,6,6,6C53.5,33,56.2,30.3,56.2,27z M50.2,31c-2.2,0-4-1.8-4-4s1.8-4,4-4
		c2.2,0,4,1.8,4,4S52.4,31,50.2,31z"/>
	<path d="M50,8C27.4,8,9,26.4,9,49s18.4,41,41,41s41-18.4,41-41S72.6,8,50,8z M50,88c-21.5,0-39-17.5-39-39s17.5-39,39-39
		s39,17.5,39,39S71.5,88,50,88z"/>
</g>
</svg>
