<?xml version="1.0" encoding="utf-8"?>
<!-- Generator: Adobe Illustrator 21.0.2, SVG Export Plug-In . SVG Version: 6.00 Build 0)  -->
<svg version="1.1" id="Layer_1" xmlns="http://www.w3.org/2000/svg" xmlns:xlink="http://www.w3.org/1999/xlink" x="0px" y="0px"
	 viewBox="0 0 100 125" style="enable-background:new 0 0 100 125;" xml:space="preserve">
<g>
	<path d="M80,35h-4.5l3.8-1.9c1-0.4,1.7-1.3,2.1-2.4c0.3-1,0.3-2.2-0.1-3.1c-0.6-1.3-1.8-2.1-3.3-2.1c-0.7,0-1.3,0.2-2,0.4l-19.2,9
		H51h-5.7l-19.2-9c-0.7-0.3-1.4-0.5-2-0.5c-1.5,0-2.7,0.8-3.3,2.1c-0.4,0.9-0.5,2.1-0.1,3.1c0.4,1.1,1.1,2,2.1,2.4l3.8,1.9H22
		c-2.2,0-4,1.8-4,4s1.8,4,4,4h18.7l1.9,8.3l0.2,0.8L29.6,78.2c-0.5,1-0.5,2.1-0.1,3.2c0.4,1,1.1,1.7,2,2.2c0.6,0.3,1.2,0.4,1.8,0.4
		c1.6,0,3.1-0.9,3.8-2.2L44,68.6V85c0,2.2,1.8,4,4,4c1.2,0,2.3-0.5,3-1.4c0.7,0.8,1.8,1.4,3,1.4c2.2,0,4-1.8,4-4V68.6l6.9,13.2
		c0.7,1.3,2.1,2.2,3.8,2.2c0.7,0,1.3-0.1,1.8-0.4c2-1,2.9-3.4,1.9-5.4L59.2,52.1l0.1-0.8l1.9-8.3H80c2.2,0,4-1.8,4-4S82.2,35,80,35z
		 M76.8,27.8c0.4-0.2,0.8-0.3,1.2-0.3c0.6,0,1.2,0.3,1.5,0.9c0.5,1,0,2.4-1,2.9L71,35h-9.5L76.8,27.8z M23.6,31.3
		c-1-0.5-1.5-1.9-1-2.9c0.3-0.6,0.9-0.9,1.5-0.9c0.4,0,0.8,0.1,1.2,0.3L40.6,35H31L23.6,31.3z M35.3,80.9c-0.3,0.7-1.2,1.1-2,1.1
		c-0.3,0-0.7-0.1-0.9-0.2c-1-0.5-1.5-1.7-1-2.7l12.2-24l0.5,2v7.2L35.3,80.9z M70.7,79.1c0.5,1,0,2.2-1,2.7c-0.3,0.1-0.7,0.2-1,0.2
		c-0.8,0-1.6-0.4-2-1.1L58,64.3v-7.2l0.5-2L70.7,79.1z M80,41H59.3l-1.9,9.9L56,56.8v3.7l0,0V85c0,1.1-0.9,2-2,2s-2-0.9-2-2V64h-2
		v21c0,1.1-0.9,2-2,2s-2-0.9-2-2V66v-5.5V57l-1.3-5.7l-2-10.3H22c-1.1,0-2-0.9-2-2s0.9-2,2-2h8h5.1h9.7h12.3h9.7H75h5
		c1.1,0,2,0.9,2,2S81.1,41,80,41z"/>
	<path d="M57,29c0-3.3-2.7-6-6-6s-6,2.7-6,6s2.7,6,6,6S57,32.3,57,29z M51,33c-2.2,0-4-1.8-4-4s1.8-4,4-4s4,1.8,4,4S53.2,33,51,33z"
		/>
	<path d="M50.8,10c-22.6,0-41,18.4-41,41s18.4,41,41,41s41-18.4,41-41S73.4,10,50.8,10z M50.8,90c-21.5,0-39-17.5-39-39
		s17.5-39,39-39s39,17.5,39,39S72.3,90,50.8,90z"/>
</g>
</svg>
