<?xml version="1.0" encoding="utf-8"?>
<!-- Generator: Adobe Illustrator 21.0.2, SVG Export Plug-In . SVG Version: 6.00 Build 0)  -->
<svg version="1.1" xmlns="http://www.w3.org/2000/svg" xmlns:xlink="http://www.w3.org/1999/xlink" x="0px" y="0px"
	 viewBox="0 0 1807.2 1036.9" style="enable-background:new 0 0 1807.2 1036.9;" xml:space="preserve">
<style type="text/css">
	.st0{fill:#F4F4F4;}
	.st1{fill:#FFFFFF;stroke:#F45B69;stroke-width:0.5;stroke-miterlimit:10;}
	.st2{fill:none;stroke:#4753F4;stroke-miterlimit:10;}
	.st3{fill:none;stroke:#4753F4;stroke-width:4;stroke-miterlimit:10;}
	.st4{fill:none;stroke:#F45B69;stroke-width:0.5;stroke-miterlimit:10;}
	.st5{fill:#F45B69;}
	.st6{fill:#4753F4;}
	.st7{fill:none;}
	.st8{font-family:'Tungsten-Semibold';}
	.st9{font-size:48px;}
	.st10{fill:#456990;stroke:#FFFFFF;stroke-width:0.1461;stroke-miterlimit:10;}
	.st11{fill:none;stroke:#F45B69;stroke-width:4;stroke-miterlimit:10;}
	.st12{font-size:36px;}
	.st13{fill:#456990;}
	.st14{display:none;fill:#F45B69;}
	.st15{fill:#FFFFFF;}
	.st16{display:none;}
	.st17{display:inline;fill:#FFFFFF;}
	.st18{font-family:'Tungsten-Medium';}
	.st19{font-size:16px;}
</style>
<g id="text">
	<rect class="st0" width="1807.2" height="1036.9"/>
	<polygon class="st4" points="1349.6,896.2 142.9,896.2 142.9,149.8 345.2,149.8 1349.6,149.8 	"/>
	<line class="st4" x1="345.2" y1="896.2" x2="345.2" y2="149.8"/>
	<line class="st4" x1="447.4" y1="896.2" x2="447.4" y2="149.8"/>
	<line class="st4" x1="243.3" y1="896.2" x2="243.3" y2="149.8"/>
	<line class="st4" x1="549.6" y1="896.2" x2="549.6" y2="149.8"/>
	<line class="st4" x1="648.5" y1="896.2" x2="648.5" y2="149.8"/>
	<line class="st4" x1="851.1" y1="896.2" x2="851.1" y2="149.8"/>
	<line class="st4" x1="747.5" y1="896.2" x2="747.5" y2="149.8"/>
	<line class="st4" x1="949" y1="896.2" x2="949" y2="149.8"/>
	<line class="st4" x1="1050.8" y1="896.2" x2="1050.8" y2="149.8"/>
	<line class="st4" x1="1152.6" y1="896.2" x2="1152.6" y2="149.8"/>
	<line class="st4" x1="1254.3" y1="896.2" x2="1254.3" y2="149.8"/>
	<line class="st4" x1="1349.6" y1="335.4" x2="142.9" y2="335.4"/>
	<line class="st4" x1="1349.6" y1="523" x2="142.9" y2="523"/>
	<line class="st4" x1="1349.6" y1="708.2" x2="142.9" y2="708.2"/>
	<g>
		<path class="st5" d="M113.3,703.5c0.5-0.6,0.7-1,0.7-1.6v-2.3c0-0.7-0.3-1-0.9-1h-0.3c-0.6,0-1,0.3-1,1v3h-2.4v-3.1
			c0-2.1,1-3.1,3.1-3.1h1c2.1,0,3.1,1,3.1,3.1v2.3c0,1.2-0.3,2-1.3,3.3l-2.7,3.4c-0.5,0.7-0.7,1.1-0.7,1.8v0.6h4.7v2.3h-7.2v-3
			c0-1.2,0.3-2.1,1.3-3.3L113.3,703.5z"/>
		<path class="st5" d="M120.7,713.2h-2.4V710h2.4V713.2z"/>
		<path class="st5" d="M129.7,710.3c0,2.1-1,3.1-3.1,3.1h-1.1c-2.1,0-3.1-1-3.1-3.1v-3h2.5v2.8c0,0.7,0.3,1,1,1h0.3c0.6,0,1-0.3,1-1
			v-4.3c0-0.7-0.3-1.1-0.9-1.1c-0.5,0-0.9,0.2-1.5,0.8h-2.3v-9.2h6.9v2.3h-4.5l0,4.5c0.6-0.5,1.2-0.9,2.2-0.9c1.6,0,2.6,1,2.6,2.7
			V710.3z"/>
	</g>
	<g>
		<path class="st5" d="M129.7,525.1c0,2.1-1,3.1-3.1,3.1h-1.1c-2.1,0-3.1-1-3.1-3.1v-3h2.5v2.8c0,0.7,0.3,1,1,1h0.3c0.6,0,1-0.3,1-1
			v-4.3c0-0.7-0.3-1.1-0.9-1.1c-0.5,0-0.9,0.2-1.5,0.8h-2.3v-9.2h6.9v2.3h-4.5l0,4.5c0.6-0.5,1.2-0.9,2.2-0.9c1.6,0,2.6,1,2.6,2.7
			V525.1z"/>
	</g>
	<g>
		<path class="st5" d="M111.4,328.4v-2.3h6.4v2.5l-3.1,14.3h-2.5l3.2-14.5H111.4z"/>
		<path class="st5" d="M120.7,342.9h-2.4v-3.2h2.4V342.9z"/>
		<path class="st5" d="M129.7,339.9c0,2.1-1,3.1-3.1,3.1h-1.1c-2.1,0-3.1-1-3.1-3.1v-3h2.5v2.8c0,0.7,0.3,1,1,1h0.3c0.6,0,1-0.3,1-1
			v-4.3c0-0.7-0.3-1.1-0.9-1.1c-0.5,0-0.9,0.2-1.5,0.8h-2.3v-9.2h6.9v2.3h-4.5l0,4.5c0.6-0.5,1.2-0.9,2.2-0.9c1.6,0,2.6,1,2.6,2.7
			V339.9z"/>
	</g>
	<g>
		<path class="st5" d="M120.1,154.9h-2.5v-13.4H116v-1.9c1.1-0.1,1.5-0.4,2.1-1.2l0.3-0.4h1.6V154.9z"/>
		<path class="st5" d="M126.4,155h-1.3c-2.1,0-3.1-1-3.1-3.1v-10.8c0-2.1,1-3.1,3.1-3.1h1.3c2.1,0,3.1,1,3.1,3.1v10.8
			C129.6,154,128.5,155,126.4,155z M126.1,140.2h-0.5c-0.7,0-1,0.3-1,1v10.6c0,0.7,0.3,1,1,1h0.5c0.6,0,1-0.3,1-1v-10.6
			C127,140.5,126.7,140.2,126.1,140.2z"/>
	</g>
	<rect x="35.8" y="390" class="st7" width="41.7" height="265.9"/>
	<text transform="matrix(0 -1 1 0 69.8534 613.9927)" class="st5 st8 st9">HOURS SLEPT</text>
	<g>
		<path class="st5" d="M805.4,964.8h7.7c5,0,7.3,2.4,7.3,7.3v18.9c0,4.9-2.4,7.3-7.3,7.3h-7.7V964.8z M810.5,993.9h1.9
			c2,0,2.9-1,2.9-3v-18.6c0-2-0.9-3-2.9-3h-1.9V993.9z"/>
		<path class="st5" d="M839.5,998.4h-5.1l-0.7-5.3h-5.3l-0.6,5.3H823l4.8-33.7h6.8L839.5,998.4z M829,988.6h4.2l-2.1-16.8L829,988.6
			z"/>
		<path class="st5" d="M844.5,998.4v-28.9h-4.6v-4.7h14.4v4.7h-4.6v28.9H844.5z"/>
		<path class="st5" d="M868.6,964.8v4.7h-6.3v9.5h6v4.7h-6v10.1h6.4v4.7h-11.5v-33.6H868.6z"/>
	</g>
	<g>
		<path class="st5" d="M134.7,926.5h-2.5v-13.4h-1.6v-1.9c1.1-0.1,1.5-0.4,2.1-1.2l0.3-0.4h1.6V926.5z"/>
		<path class="st5" d="M138.2,927.3h-1.9l3.1-18.3h1.9L138.2,927.3z"/>
		<path class="st5" d="M146.5,916.7c0.5-0.6,0.7-1,0.7-1.6v-2.3c0-0.7-0.3-1-0.9-1h-0.3c-0.6,0-1,0.3-1,1v3h-2.4v-3.1
			c0-2.1,1-3.1,3.1-3.1h1c2.1,0,3.1,1,3.1,3.1v2.3c0,1.2-0.3,2-1.3,3.3l-2.7,3.4c-0.5,0.7-0.7,1.1-0.7,1.8v0.6h4.7v2.3h-7.2v-3
			c0-1.2,0.3-2.1,1.3-3.3L146.5,916.7z"/>
		<path class="st5" d="M158.7,923.5c0,2.1-1,3.1-3.1,3.1h-1.1c-2.1,0-3.1-1-3.1-3.1v-3h2.5v2.8c0,0.7,0.3,1,1,1h0.3c0.6,0,1-0.3,1-1
			v-4.3c0-0.7-0.3-1.1-0.9-1.1c-0.5,0-0.9,0.2-1.5,0.8h-2.3v-9.2h6.9v2.3h-4.5l0,4.5c0.6-0.5,1.2-0.9,2.2-0.9c1.6,0,2.6,1,2.6,2.7
			V923.5z"/>
	</g>
	<g>
		<path class="st5" d="M233.3,926.5h-2.5v-13.4h-1.6v-1.9c1.1-0.1,1.5-0.4,2.1-1.2l0.3-0.4h1.6V926.5z"/>
		<path class="st5" d="M236.8,927.3h-1.9l3.1-18.3h1.9L236.8,927.3z"/>
		<path class="st5" d="M245.1,916.7c0.5-0.6,0.7-1,0.7-1.6v-2.3c0-0.7-0.3-1-0.9-1h-0.3c-0.6,0-1,0.3-1,1v3h-2.4v-3.1
			c0-2.1,1-3.1,3.1-3.1h1c2.1,0,3.1,1,3.1,3.1v2.3c0,1.2-0.3,2-1.3,3.3l-2.7,3.4c-0.5,0.7-0.7,1.1-0.7,1.8v0.6h4.7v2.3H241v-3
			c0-1.2,0.3-2.1,1.3-3.3L245.1,916.7z"/>
		<path class="st5" d="M252.6,916.8c0.6-0.3,1.2-0.5,2-0.5h0.1c1.7,0,2.7,1.1,2.7,2.8v4.4c0,2.1-1,3.1-3.1,3.1h-1.1
			c-2.1,0-3.1-1-3.1-3.1v-10.8c0-2.1,1-3.1,3.1-3.1h1.1c2.1,0,3.1,1,3.1,3.1v2.3h-2.5v-2.1c0-0.7-0.3-1-0.9-1h-0.4
			c-0.6,0-0.9,0.3-0.9,1V916.8z M252.6,923.4c0,0.7,0.3,1,0.9,1h0.4c0.6,0,0.9-0.3,0.9-1v-3.8c0-0.7-0.3-1-1-1c-0.5,0-1,0.1-1.3,0.3
			V923.4z"/>
	</g>
	<g>
		<path class="st5" d="M335.7,926.5h-2.5v-13.4h-1.6v-1.9c1.1-0.1,1.5-0.4,2.1-1.2l0.3-0.4h1.6V926.5z"/>
		<path class="st5" d="M339.2,927.3h-1.9l3.1-18.3h1.9L339.2,927.3z"/>
		<path class="st5" d="M347.5,916.7c0.5-0.6,0.7-1,0.7-1.6v-2.3c0-0.7-0.3-1-0.9-1h-0.3c-0.6,0-1,0.3-1,1v3h-2.4v-3.1
			c0-2.1,1-3.1,3.1-3.1h1c2.1,0,3.1,1,3.1,3.1v2.3c0,1.2-0.3,2-1.3,3.3l-2.7,3.4c-0.5,0.7-0.7,1.1-0.7,1.8v0.6h4.7v2.3h-7.2v-3
			c0-1.2,0.3-2.1,1.3-3.3L347.5,916.7z"/>
		<path class="st5" d="M352.2,912v-2.3h6.4v2.5l-3.1,14.3H353l3.2-14.5H352.2z"/>
	</g>
	<g>
		<path class="st5" d="M437.4,926.5h-2.5v-13.4h-1.6v-1.9c1.1-0.1,1.5-0.4,2.1-1.2l0.3-0.4h1.6V926.5z"/>
		<path class="st5" d="M440.8,927.3h-1.9l3.1-18.3h1.9L440.8,927.3z"/>
		<path class="st5" d="M449.1,916.7c0.5-0.6,0.7-1,0.7-1.6v-2.3c0-0.7-0.3-1-0.9-1h-0.3c-0.6,0-1,0.3-1,1v3h-2.4v-3.1
			c0-2.1,1-3.1,3.1-3.1h1c2.1,0,3.1,1,3.1,3.1v2.3c0,1.2-0.3,2-1.3,3.3l-2.7,3.4c-0.5,0.7-0.7,1.1-0.7,1.8v0.6h4.7v2.3h-7.2v-3
			c0-1.2,0.3-2.1,1.3-3.3L449.1,916.7z"/>
		<path class="st5" d="M458.3,909.6c2.1,0,3.1,1,3.1,3.1v2.6c0,1.4-0.5,2.2-1.4,2.5c1,0.3,1.4,0.9,1.4,2.2v3.6c0,2.1-1,3.1-3.1,3.1
			h-1.1c-2.1,0-3.1-1-3.1-3.1v-3.6c0-1.2,0.4-1.9,1.4-2.2c-0.9-0.3-1.4-1.1-1.4-2.5v-2.6c0-2.1,1-3.1,3.1-3.1H458.3z M456.6,923.4
			c0,0.6,0.3,1,1,1h0.4c0.6,0,1-0.3,1-1V920c0-0.6-0.3-1-1-1h-0.4c-0.7,0-1,0.3-1,1V923.4z M458,916.8c0.6,0,1-0.3,1-1v-3.1
			c0-0.6-0.3-1-1-1h-0.4c-0.7,0-1,0.3-1,1v3.1c0,0.7,0.3,1,1,1H458z"/>
	</g>
	<g>
		<path class="st5" d="M539.6,926.5h-2.5v-13.4h-1.6v-1.9c1.1-0.1,1.5-0.4,2.1-1.2l0.3-0.4h1.6V926.5z"/>
		<path class="st5" d="M543,927.3h-1.9l3.1-18.3h1.9L543,927.3z"/>
		<path class="st5" d="M551.3,916.7c0.5-0.6,0.7-1,0.7-1.6v-2.3c0-0.7-0.3-1-0.9-1h-0.3c-0.6,0-1,0.3-1,1v3h-2.4v-3.1
			c0-2.1,1-3.1,3.1-3.1h1c2.1,0,3.1,1,3.1,3.1v2.3c0,1.2-0.3,2-1.3,3.3l-2.7,3.4c-0.5,0.7-0.7,1.1-0.7,1.8v0.6h4.7v2.3h-7.2v-3
			c0-1.2,0.3-2.1,1.3-3.3L551.3,916.7z"/>
		<path class="st5" d="M561.1,923.4v-3.8c-0.6,0.3-1.2,0.5-2,0.5H559c-1.7,0-2.7-1.1-2.7-2.8v-4.6c0-2.1,1-3.1,3.1-3.1h1.1
			c2.1,0,3.1,1,3.1,3.1v10.8c0,2.1-1,3.1-3.1,3.1h-1.1c-2.1,0-3.1-1-3.1-3.1v-2.1h2.5v1.9c0,0.7,0.3,1,0.9,1h0.4
			C560.8,924.4,561.1,924.1,561.1,923.4z M561.1,912.8c0-0.7-0.3-1-0.9-1h-0.4c-0.6,0-0.9,0.3-0.9,1v4c0,0.7,0.3,1,1,1
			c0.5,0,1-0.1,1.3-0.3V912.8z"/>
	</g>
	<g>
		<path class="st5" d="M638.3,926.5h-2.5v-13.4h-1.6v-1.9c1.1-0.1,1.5-0.4,2.1-1.2l0.3-0.4h1.6V926.5z"/>
		<path class="st5" d="M641.8,927.3h-1.9l3.1-18.3h1.9L641.8,927.3z"/>
		<path class="st5" d="M650.9,920.1c0-0.7-0.3-1-0.9-1h-2.2v-2.3h2.2c0.6,0,0.9-0.3,0.9-1v-3c0-0.7-0.3-1-0.9-1h-0.4
			c-0.6,0-1,0.3-1,1v2.2h-2.4v-2.3c0-2.1,1-3.1,3.1-3.1h1c2.1,0,3.1,1,3.1,3.1v2.6c0,1.4-0.5,2.2-1.4,2.5c1,0.3,1.4,0.9,1.4,2.2v3.6
			c0,2.1-1,3.1-3.1,3.1h-1.2c-2.1,0-3.1-1-3.1-3.1v-2.7h2.4v2.5c0,0.7,0.3,1,1,1h0.4c0.7,0,1-0.3,1-1V920.1z"/>
		<path class="st5" d="M659.6,926.6h-1.3c-2.1,0-3.1-1-3.1-3.1v-10.8c0-2.1,1-3.1,3.1-3.1h1.3c2.1,0,3.1,1,3.1,3.1v10.8
			C662.8,925.6,661.7,926.6,659.6,926.6z M659.3,911.8h-0.5c-0.7,0-1,0.3-1,1v10.6c0,0.7,0.3,1,1,1h0.5c0.6,0,1-0.3,1-1v-10.6
			C660.2,912.1,659.9,911.8,659.3,911.8z"/>
	</g>
	<g>
		<path class="st5" d="M739.2,926.5h-2.5v-13.4h-1.6v-1.9c1.1-0.1,1.5-0.4,2.1-1.2l0.3-0.4h1.6V926.5z"/>
		<path class="st5" d="M742.6,927.3h-1.9l3.1-18.3h1.9L742.6,927.3z"/>
		<path class="st5" d="M751.7,920.1c0-0.7-0.3-1-0.9-1h-2.2v-2.3h2.2c0.6,0,0.9-0.3,0.9-1v-3c0-0.7-0.3-1-0.9-1h-0.4
			c-0.6,0-1,0.3-1,1v2.2h-2.4v-2.3c0-2.1,1-3.1,3.1-3.1h1c2.1,0,3.1,1,3.1,3.1v2.6c0,1.4-0.5,2.2-1.4,2.5c1,0.3,1.4,0.9,1.4,2.2v3.6
			c0,2.1-1,3.1-3.1,3.1H750c-2.1,0-3.1-1-3.1-3.1v-2.7h2.4v2.5c0,0.7,0.3,1,1,1h0.4c0.7,0,1-0.3,1-1V920.1z"/>
		<path class="st5" d="M759.8,926.5h-2.5v-13.4h-1.6v-1.9c1.1-0.1,1.5-0.4,2.1-1.2l0.3-0.4h1.6V926.5z"/>
	</g>
	<g>
		<path class="st5" d="M845.7,916.7c0.5-0.6,0.7-1,0.7-1.6v-2.3c0-0.7-0.3-1-0.9-1h-0.3c-0.6,0-1,0.3-1,1v3h-2.4v-3.1
			c0-2.1,1-3.1,3.1-3.1h1c2.1,0,3.1,1,3.1,3.1v2.3c0,1.2-0.3,2-1.3,3.3l-2.7,3.4c-0.5,0.7-0.7,1.1-0.7,1.8v0.6h4.7v2.3h-7.2v-3
			c0-1.2,0.3-2.1,1.3-3.3L845.7,916.7z"/>
		<path class="st5" d="M852.2,927.3h-1.9l3.1-18.3h1.9L852.2,927.3z"/>
		<path class="st5" d="M860.5,926.5H858v-13.4h-1.6v-1.9c1.1-0.1,1.5-0.4,2.1-1.2l0.3-0.4h1.6V926.5z"/>
	</g>
	<g>
		<path class="st5" d="M942,916.7c0.5-0.6,0.7-1,0.7-1.6v-2.3c0-0.7-0.3-1-0.9-1h-0.3c-0.6,0-1,0.3-1,1v3H938v-3.1
			c0-2.1,1-3.1,3.1-3.1h1c2.1,0,3.1,1,3.1,3.1v2.3c0,1.2-0.3,2-1.3,3.3l-2.7,3.4c-0.5,0.7-0.7,1.1-0.7,1.8v0.6h4.7v2.3H938v-3
			c0-1.2,0.3-2.1,1.3-3.3L942,916.7z"/>
		<path class="st5" d="M948.5,927.3h-1.9l3.1-18.3h1.9L948.5,927.3z"/>
		<path class="st5" d="M956.8,916.7c0.5-0.6,0.7-1,0.7-1.6v-2.3c0-0.7-0.3-1-0.9-1h-0.3c-0.6,0-1,0.3-1,1v3h-2.4v-3.1
			c0-2.1,1-3.1,3.1-3.1h1c2.1,0,3.1,1,3.1,3.1v2.3c0,1.2-0.3,2-1.3,3.3l-2.7,3.4c-0.5,0.7-0.7,1.1-0.7,1.8v0.6h4.7v2.3h-7.2v-3
			c0-1.2,0.3-2.1,1.3-3.3L956.8,916.7z"/>
	</g>
	<g>
		<path class="st5" d="M1043.7,916.7c0.5-0.6,0.7-1,0.7-1.6v-2.3c0-0.7-0.3-1-0.9-1h-0.3c-0.6,0-1,0.3-1,1v3h-2.4v-3.1
			c0-2.1,1-3.1,3.1-3.1h1c2.1,0,3.1,1,3.1,3.1v2.3c0,1.2-0.3,2-1.3,3.3l-2.7,3.4c-0.5,0.7-0.7,1.1-0.7,1.8v0.6h4.7v2.3h-7.2v-3
			c0-1.2,0.3-2.1,1.3-3.3L1043.7,916.7z"/>
		<path class="st5" d="M1050.2,927.3h-1.9l3.1-18.3h1.9L1050.2,927.3z"/>
		<path class="st5" d="M1059.3,920.1c0-0.7-0.3-1-0.9-1h-2.2v-2.3h2.2c0.6,0,0.9-0.3,0.9-1v-3c0-0.7-0.3-1-0.9-1h-0.4
			c-0.6,0-1,0.3-1,1v2.2h-2.4v-2.3c0-2.1,1-3.1,3.1-3.1h1c2.1,0,3.1,1,3.1,3.1v2.6c0,1.4-0.5,2.2-1.4,2.5c1,0.3,1.4,0.9,1.4,2.2v3.6
			c0,2.1-1,3.1-3.1,3.1h-1.2c-2.1,0-3.1-1-3.1-3.1v-2.7h2.4v2.5c0,0.7,0.3,1,1,1h0.4c0.7,0,1-0.3,1-1V920.1z"/>
	</g>
	<g>
		<path class="st5" d="M1145.7,916.2c0.5-0.6,0.7-1,0.7-1.6v-2.3c0-0.7-0.3-1-0.9-1h-0.3c-0.6,0-1,0.3-1,1v3h-2.4v-3.1
			c0-2.1,1-3.1,3.1-3.1h1c2.1,0,3.1,1,3.1,3.1v2.3c0,1.2-0.3,2-1.3,3.3l-2.7,3.4c-0.5,0.7-0.7,1.1-0.7,1.8v0.6h4.7v2.3h-7.2v-3
			c0-1.2,0.3-2.1,1.3-3.3L1145.7,916.2z"/>
		<path class="st5" d="M1152.1,926.7h-1.9l3.1-18.3h1.9L1152.1,926.7z"/>
		<path class="st5" d="M1155.5,920.6l3.4-11.4h3.4v11.7h1.2v2.2h-1.2v2.9h-2.3v-2.9h-4.4V920.6z M1160,920.9v-8.1l-2.4,8.1H1160z"/>
	</g>
	<g>
		<path class="st5" d="M1247.2,916.2c0.5-0.6,0.7-1,0.7-1.6v-2.3c0-0.7-0.3-1-0.9-1h-0.3c-0.6,0-1,0.3-1,1v3h-2.4v-3.1
			c0-2.1,1-3.1,3.1-3.1h1c2.1,0,3.1,1,3.1,3.1v2.3c0,1.2-0.3,2-1.3,3.3l-2.7,3.4c-0.5,0.7-0.7,1.1-0.7,1.8v0.6h4.7v2.3h-7.2v-3
			c0-1.2,0.3-2.1,1.3-3.3L1247.2,916.2z"/>
		<path class="st5" d="M1253.7,926.7h-1.9l3.1-18.3h1.9L1253.7,926.7z"/>
		<path class="st5" d="M1265.4,923c0,2.1-1,3.1-3.1,3.1h-1.1c-2.1,0-3.1-1-3.1-3.1v-3h2.5v2.8c0,0.7,0.3,1,1,1h0.3c0.6,0,1-0.3,1-1
			v-4.3c0-0.7-0.3-1.1-0.9-1.1c-0.5,0-0.9,0.2-1.5,0.8h-2.3v-9.2h6.9v2.3h-4.5l0,4.5c0.6-0.5,1.2-0.9,2.2-0.9c1.6,0,2.6,1,2.6,2.7
			V923z"/>
	</g>
	<g>
		<path class="st5" d="M1342.5,916.2c0.5-0.6,0.7-1,0.7-1.6v-2.3c0-0.7-0.3-1-0.9-1h-0.3c-0.6,0-1,0.3-1,1v3h-2.4v-3.1
			c0-2.1,1-3.1,3.1-3.1h1c2.1,0,3.1,1,3.1,3.1v2.3c0,1.2-0.3,2-1.3,3.3l-2.7,3.4c-0.5,0.7-0.7,1.1-0.7,1.8v0.6h4.7v2.3h-7.2v-3
			c0-1.2,0.3-2.1,1.3-3.3L1342.5,916.2z"/>
		<path class="st5" d="M1349,926.7h-1.9l3.1-18.3h1.9L1349,926.7z"/>
		<path class="st5" d="M1355.9,916.3c0.6-0.3,1.2-0.5,2-0.5h0.1c1.7,0,2.7,1.1,2.7,2.8v4.4c0,2.1-1,3.1-3.1,3.1h-1.1
			c-2.1,0-3.1-1-3.1-3.1v-10.8c0-2.1,1-3.1,3.1-3.1h1.1c2.1,0,3.1,1,3.1,3.1v2.3h-2.5v-2.1c0-0.7-0.3-1-0.9-1h-0.4
			c-0.6,0-0.9,0.3-0.9,1V916.3z M1355.9,922.9c0,0.7,0.3,1,0.9,1h0.4c0.6,0,0.9-0.3,0.9-1v-3.8c0-0.7-0.3-1-1-1
			c-0.5,0-1,0.1-1.3,0.3V922.9z"/>
	</g>
	<g>
		<circle class="st10" cx="1489.2" cy="732.5" r="43.8"/>
		<line class="st11" x1="1445.3" y1="655.5" x2="1523.3" y2="655.5"/>
		<rect x="1550.9" y="641.3" class="st7" width="151.9" height="31.6"/>
		<text transform="matrix(1 0 0 1 1550.8848 666.8887)" class="st5 st8 st12">HOURS SLEPT</text>
		<rect x="1550.9" y="716.7" class="st7" width="218.8" height="31.6"/>
		<text transform="matrix(1 0 0 1 1550.8848 742.2825)" class="st10 st8 st12">6 HOURS IN CLASS</text>
		<rect x="1550.9" y="815.6" class="st7" width="218.8" height="31.6"/>
		<text transform="matrix(1 0 0 1 1550.8848 841.1752)" class="st13 st8 st12">3 HOURS IN CLASS</text>
		<circle class="st10" cx="1489.2" cy="831.4" r="21.9"/>
	</g>
	<g>
		<path class="st13" d="M243.3,71.5V50.3h7.7v50.4h-7.7V78.5h-7.4v22.2h-7.7V50.3h7.7v21.2H243.3z"/>
		<path class="st13" d="M269.2,101.1h-4.1c-6.3,0-9.4-3.1-9.4-9.4V59.2c0-6.3,3.1-9.4,9.4-9.4h4.1c6.3,0,9.4,3.1,9.4,9.4v32.5
			C278.6,98,275.5,101.1,269.2,101.1z M268,56.6h-1.6c-2,0-3,0.9-3,3v31.8c0,2,0.9,3,3,3h1.6c1.9,0,2.9-0.9,2.9-3V59.6
			C270.9,57.6,269.9,56.6,268,56.6z"/>
		<path class="st13" d="M305.7,91.8c0,6.3-3.1,9.4-9.4,9.4h-3.7c-6.3,0-9.4-3.1-9.4-9.4V50.3h7.7v41.1c0,2,0.9,3,3,3h1.2
			c1.9,0,2.9-0.9,2.9-3V50.3h7.7V91.8z"/>
		<path class="st13" d="M332.7,83.6v17.1H325v-17c0-2.2-1-3.2-3.2-3.2h-3.5v20.2h-7.7V50.3h12.7c6.3,0,9.4,3.1,9.4,9.4v9.5
			c0,4.5-1.6,6.6-4.4,7.8C331.4,77.8,332.7,79.7,332.7,83.6z M322,57.1h-3.7v16.6h3.5c2.2,0,3.2-1,3.2-3.1V60
			C324.9,58.1,323.9,57.1,322,57.1z"/>
		<path class="st13" d="M359.3,83.6v8.2c0,6.3-3.1,9.4-9.4,9.4h-3.4c-6.3,0-9.3-3.1-9.3-9.3V81.2h7.5v10.4c0,1.9,0.9,2.9,3,2.9h1
			c2,0,3-0.9,3-2.9v-6.9c0-2.1-0.7-3-2.2-4.1l-7.8-5.7c-3.5-2.4-4.5-4.8-4.5-8.7v-6.9c0-6.3,3.1-9.4,9.4-9.4h3.2
			c6.2,0,9.3,3.1,9.3,9.3v9.1h-7.6v-8.9c0-1.9-0.9-2.9-2.9-2.9h-0.9c-1.9,0-2.9,0.9-2.9,2.9v5.6c0,2.1,0.7,3.1,2.2,4.1l7.8,5.7
			C358.2,77.3,359.3,79.5,359.3,83.6z"/>
		<path class="st13" d="M397.3,83.6v8.2c0,6.3-3.1,9.4-9.4,9.4h-3.4c-6.3,0-9.3-3.1-9.3-9.3V81.2h7.5v10.4c0,1.9,0.9,2.9,3,2.9h1
			c2,0,3-0.9,3-2.9v-6.9c0-2.1-0.7-3-2.2-4.1l-7.8-5.7c-3.5-2.4-4.5-4.8-4.5-8.7v-6.9c0-6.3,3.1-9.4,9.4-9.4h3.2
			c6.2,0,9.3,3.1,9.3,9.3v9.1h-7.6v-8.9c0-1.9-0.9-2.9-2.9-2.9h-0.9c-1.9,0-2.9,0.9-2.9,2.9v5.6c0,2.1,0.7,3.1,2.2,4.1l7.8,5.7
			C396.2,77.3,397.3,79.5,397.3,83.6z"/>
		<path class="st13" d="M409.6,50.3v43.4h8.5v7h-16.2V50.3H409.6z"/>
		<path class="st13" d="M439.4,50.3v7H430v14.3h9.1v7H430v15.2h9.6v7h-17.3V50.3H439.4z"/>
		<path class="st13" d="M451.8,100.7h-7.7V50.3h12.1c6.3,0,9.4,3.1,9.4,9.4V73c0,6.3-3.1,9.4-9.4,9.4h-4.4V100.7z M454.9,57.1h-3.2
			v18.6h3.2c1.9,0,2.9-0.9,2.9-3V60C457.8,58,456.9,57.1,454.9,57.1z"/>
		<path class="st13" d="M476.1,100.7V57.3h-6.9v-7h21.5v7h-6.9v43.4H476.1z"/>
		<path class="st13" d="M521.3,50.3h7.3l-7.4,50.5h-9.4l-7.4-50.5h7.8l4.6,37.2L521.3,50.3z"/>
		<path class="st13" d="M554.1,83.6v8.2c0,6.3-3.1,9.4-9.4,9.4h-3.4c-6.3,0-9.3-3.1-9.3-9.3V81.2h7.5v10.4c0,1.9,0.9,2.9,3,2.9h1
			c2,0,3-0.9,3-2.9v-6.9c0-2.1-0.7-3-2.2-4.1l-7.8-5.7c-3.5-2.4-4.5-4.8-4.5-8.7v-6.9c0-6.3,3.1-9.4,9.4-9.4h3.2
			c6.2,0,9.3,3.1,9.3,9.3v9.1h-7.6v-8.9c0-1.9-0.9-2.9-2.9-2.9h-0.9c-1.9,0-2.9,0.9-2.9,2.9v5.6c0,2.1,0.7,3.1,2.2,4.1l7.8,5.7
			C553,77.3,554.1,79.5,554.1,83.6z"/>
		<path class="st13" d="M565.7,100.7h-7.3v-9.6h7.3V100.7z"/>
		<path class="st13" d="M597,71.5V50.3h7.7v50.4H597V78.5h-7.4v22.2h-7.7V50.3h7.7v21.2H597z"/>
		<path class="st13" d="M622.9,101.1h-4.1c-6.3,0-9.4-3.1-9.4-9.4V59.2c0-6.3,3.1-9.4,9.4-9.4h4.1c6.3,0,9.4,3.1,9.4,9.4v32.5
			C632.2,98,629.1,101.1,622.9,101.1z M621.7,56.6h-1.6c-2,0-3,0.9-3,3v31.8c0,2,0.9,3,3,3h1.6c1.9,0,2.9-0.9,2.9-3V59.6
			C624.5,57.6,623.6,56.6,621.7,56.6z"/>
		<path class="st13" d="M659.4,91.8c0,6.3-3.1,9.4-9.4,9.4h-3.7c-6.3,0-9.4-3.1-9.4-9.4V50.3h7.7v41.1c0,2,0.9,3,3,3h1.2
			c1.9,0,2.9-0.9,2.9-3V50.3h7.7V91.8z"/>
		<path class="st13" d="M686.3,83.6v17.1h-7.7v-17c0-2.2-1-3.2-3.2-3.2h-3.5v20.2h-7.7V50.3h12.7c6.3,0,9.4,3.1,9.4,9.4v9.5
			c0,4.5-1.6,6.6-4.4,7.8C685,77.8,686.3,79.7,686.3,83.6z M675.7,57.1h-3.7v16.6h3.5c2.2,0,3.2-1,3.2-3.1V60
			C678.5,58.1,677.6,57.1,675.7,57.1z"/>
		<path class="st13" d="M712.9,83.6v8.2c0,6.3-3.1,9.4-9.4,9.4h-3.4c-6.3,0-9.3-3.1-9.3-9.3V81.2h7.5v10.4c0,1.9,0.9,2.9,3,2.9h1
			c2,0,3-0.9,3-2.9v-6.9c0-2.1-0.7-3-2.2-4.1l-7.8-5.7c-3.5-2.4-4.5-4.8-4.5-8.7v-6.9c0-6.3,3.1-9.4,9.4-9.4h3.2
			c6.2,0,9.3,3.1,9.3,9.3v9.1h-7.6v-8.9c0-1.9-0.9-2.9-2.9-2.9h-0.9c-1.9,0-2.9,0.9-2.9,2.9v5.6c0,2.1,0.7,3.1,2.2,4.1l7.8,5.7
			C711.9,77.3,712.9,79.5,712.9,83.6z"/>
		<path class="st13" d="M751,83.6v8.2c0,6.3-3.1,9.4-9.4,9.4h-3.4c-6.3,0-9.3-3.1-9.3-9.3V81.2h7.5v10.4c0,1.9,0.9,2.9,3,2.9h1
			c2,0,3-0.9,3-2.9v-6.9c0-2.1-0.7-3-2.2-4.1l-7.8-5.7c-3.5-2.4-4.5-4.8-4.5-8.7v-6.9c0-6.3,3.1-9.4,9.4-9.4h3.2
			c6.2,0,9.3,3.1,9.3,9.3v9.1h-7.6v-8.9c0-1.9-0.9-2.9-2.9-2.9h-0.9c-1.9,0-2.9,0.9-2.9,2.9v5.6c0,2.1,0.7,3.1,2.2,4.1l7.8,5.7
			C749.9,77.3,751,79.5,751,83.6z"/>
		<path class="st13" d="M763.2,100.7h-7.7V50.3h12.1c6.3,0,9.4,3.1,9.4,9.4V73c0,6.3-3.1,9.4-9.4,9.4h-4.4V100.7z M766.4,57.1h-3.2
			v18.6h3.2c1.9,0,2.9-0.9,2.9-3V60C769.3,58,768.3,57.1,766.4,57.1z"/>
		<path class="st13" d="M798.5,50.3v7h-9.4v14.3h9.1v7h-9.1v15.2h9.6v7h-17.3V50.3H798.5z"/>
		<path class="st13" d="M819.3,50.3h6.9v50.4h-8.4l-7.8-34l0.1,34h-6.9V50.3h9l7.2,31.3L819.3,50.3z"/>
		<path class="st13" d="M837.1,100.7V57.3h-6.9v-7h21.5v7h-6.9v43.4H837.1z"/>
		<path class="st13" d="M874.6,100.7h-7.7V50.3h7.7V100.7z"/>
		<path class="st13" d="M895.5,50.3h6.9v50.4h-8.4l-7.8-34l0.1,34h-6.9V50.3h9l7.2,31.3L895.5,50.3z"/>
		<path class="st13" d="M941.4,80v11.7c0,6.3-3.1,9.4-9.4,9.4h-3.8c-6.3,0-9.4-3.1-9.4-9.4V59.2c0-6.3,3.1-9.4,9.4-9.4h3.7
			c6.3,0,9.3,3,9.3,9.3v10.3h-7.6v-9.9c0-2-0.9-3-2.9-3h-1.3c-2,0-3,0.9-3,3v31.8c0,2,0.9,3,3,3h1.4c1.9,0,2.9-0.9,2.9-3V80H941.4z"
			/>
		<path class="st13" d="M953.8,50.3v43.4h8.5v7h-16.2V50.3H953.8z"/>
		<path class="st13" d="M990.5,100.7h-7.6l-1-7.9h-8l-0.9,7.9h-7.1l7.2-50.5h10.2L990.5,100.7z M974.8,85.9h6.3l-3.1-25.2
			L974.8,85.9z"/>
		<path class="st13" d="M1016.1,83.6v8.2c0,6.3-3.1,9.4-9.4,9.4h-3.4c-6.3,0-9.3-3.1-9.3-9.3V81.2h7.5v10.4c0,1.9,0.9,2.9,3,2.9h1
			c2,0,3-0.9,3-2.9v-6.9c0-2.1-0.7-3-2.2-4.1l-7.8-5.7c-3.5-2.4-4.5-4.8-4.5-8.7v-6.9c0-6.3,3.1-9.4,9.4-9.4h3.2
			c6.2,0,9.3,3.1,9.3,9.3v9.1h-7.6v-8.9c0-1.9-0.9-2.9-2.9-2.9h-0.9c-1.9,0-2.9,0.9-2.9,2.9v5.6c0,2.1,0.7,3.1,2.2,4.1l7.8,5.7
			C1015,77.3,1016.1,79.5,1016.1,83.6z"/>
		<path class="st13" d="M1042.6,83.6v8.2c0,6.3-3.1,9.4-9.4,9.4h-3.4c-6.3,0-9.3-3.1-9.3-9.3V81.2h7.5v10.4c0,1.9,0.9,2.9,3,2.9h1
			c2,0,3-0.9,3-2.9v-6.9c0-2.1-0.7-3-2.2-4.1l-7.8-5.7c-3.5-2.4-4.5-4.8-4.5-8.7v-6.9c0-6.3,3.1-9.4,9.4-9.4h3.2
			c6.2,0,9.3,3.1,9.3,9.3v9.1h-7.6v-8.9c0-1.9-0.9-2.9-2.9-2.9h-0.9c-1.9,0-2.9,0.9-2.9,2.9v5.6c0,2.1,0.7,3.1,2.2,4.1l7.8,5.7
			C1041.5,77.3,1042.6,79.5,1042.6,83.6z"/>
		<path class="st13" d="M1066.9,103.7c-6.6-6.6-8.1-10.7-8.1-22.8V70.1c0-12.2,1.5-16.2,8.1-22.8l4,1.7c-5,6.9-6.3,9.9-6.3,21.1V81
			c0,11.2,1.3,14.2,6.3,21.1L1066.9,103.7z"/>
		<path class="st13" d="M1084.4,100.7h-7.4V60.4h-4.8v-5.6c3.2-0.3,4.6-1.2,6.4-3.6l0.9-1.2h4.9V100.7z"/>
		<path class="st13" d="M1093.8,103h-5.6l9.4-55h5.6L1093.8,103z"/>
		<path class="st13" d="M1117.9,71.4c1.5-1.9,2-3,2-4.8v-7c0-2-0.9-3-2.8-3h-0.9c-1.9,0-2.9,0.9-2.9,3v8.9h-7.3v-9.3
			c0-6.3,3.1-9.4,9.3-9.4h3c6.2,0,9.3,3.1,9.3,9.4v7c0,3.5-0.8,6.1-3.9,9.9l-8.1,10.2c-1.6,2-2.1,3.2-2.1,5.5v1.8h14.1v7h-21.7v-9.1
			c0-3.7,0.9-6.2,4-10L1117.9,71.4z"/>
		<path class="st13" d="M1153.7,91.8c0,6.3-3.1,9.4-9.3,9.4h-3.2c-6.2,0-9.2-3-9.2-9.3v-8.9h7.4v8.5c0,2,0.9,3,2.9,3h0.9
			c1.9,0,2.9-0.9,2.9-3v-13c0-2.1-0.8-3.2-2.7-3.2c-1.6,0-2.8,0.7-4.4,2.5h-6.8V50.3h20.7v7h-13.6l-0.1,13.5
			c1.8-1.5,3.7-2.6,6.7-2.6c4.7,0,7.8,3.1,7.8,8.2V91.8z"/>
		<path class="st13" d="M1182.6,77.4V83h-25v-5.5H1182.6z"/>
		<path class="st13" d="M1197.5,71.4c1.5-1.9,2-3,2-4.8v-7c0-2-0.9-3-2.8-3h-0.9c-1.9,0-2.9,0.9-2.9,3v8.9h-7.3v-9.3
			c0-6.3,3.1-9.4,9.3-9.4h3c6.2,0,9.3,3.1,9.3,9.4v7c0,3.5-0.8,6.1-3.9,9.9l-8.1,10.2c-1.6,2-2.1,3.2-2.1,5.5v1.8h14.1v7h-21.7v-9.1
			c0-3.7,0.9-6.2,4-10L1197.5,71.4z"/>
		<path class="st13" d="M1216.1,103h-5.6l9.4-55h5.6L1216.1,103z"/>
		<path class="st13" d="M1236,71.8c1.7-0.9,3.7-1.5,6-1.5h0.4c5.1,0,8.1,3.4,8.1,8.4v13.2c0,6.3-3.1,9.4-9.4,9.4h-3.4
			c-6.3,0-9.4-3.1-9.4-9.4V59.2c0-6.3,3.1-9.4,9.4-9.4h3.3c6.3,0,9.2,3,9.2,9.2V66h-7.4v-6.4c0-2-0.9-3-2.8-3h-1.2
			c-1.9,0-2.8,0.9-2.8,3V71.8z M1236,91.4c0,2,0.9,3,2.8,3h1.3c1.9,0,2.8-0.9,2.8-3V80.1c0-2.1-0.9-3-3-3c-1.4,0-3,0.4-4,0.8V91.4z"
			/>
		<path class="st13" d="M1256.3,47.3c6.6,6.6,8.1,10.7,8.1,22.8v10.8c0,12.2-1.5,16.2-8.1,22.8l-4-1.7c5-6.9,6.3-9.9,6.3-21.1V70
			c0-11.2-1.3-14.2-6.3-21.1L1256.3,47.3z"/>
	</g>
	<rect x="1415.9" y="598.5" class="st4" width="343.2" height="297.7"/>
	<path class="st14" d="M953.7,208.6v100.2c0,8.9-7.3,16.2-16.2,16.2H788.3l53.9,129.4L771.6,325h-16.2c-8.9,0-16.2-7.3-16.2-16.2
		V208.6c0-8.9,7.3-16.2,16.2-16.2h182.1C946.4,192.3,953.7,199.6,953.7,208.6z"/>
	<rect x="773.3" y="216.1" class="st7" width="153.8" height="92.6"/>
	<text transform="matrix(1 0 0 1 787.9576 227.46)" class="st16"><tspan x="0" y="0" class="st17 st18 st19">Personal Publication:  3 hours </tspan><tspan x="22.2" y="19.2" class="st17 st18 st19">8:00 AM – 11:00 AM</tspan><tspan x="-13.9" y="57.6" class="st17 st18 st19">Advanced Visual Interaction: 3hours</tspan><tspan x="28.4" y="76.8" class="st17 st18 st19">7:15PM–10:15PM</tspan></text>
</g>
<g id="line">
	<polyline class="st11" points="142.9,423.9 243.3,316.4 345.2,276.3 447.4,285.4 549.6,319.1 648.5,402 747.5,433 851.1,490.3 
		949,396.5 1050.8,256.3 1152.6,269.1 1254.3,426.6 1349.6,412 	"/>
</g>
<g id="dot1">
	<circle class="st10" cx="142.9" cy="423.3" r="43.8"/>
</g>
<g id="dot2">
	<circle class="st10" cx="243.3" cy="316.5" r="21.9"/>
</g>
<g id="dot3">
	<circle class="st10" cx="345.2" cy="276.3" r="43.8"/>
</g>
<g id="dot4">
	<circle class="st10" cx="648.5" cy="401.8" r="43.8"/>
</g>
<g id="dot5">
	<circle class="st10" cx="851.1" cy="490.3" r="43.8"/>
	<text transform="matrix(1 0 0 1 828.2906 485.9434)" class="st16"><tspan x="0" y="0" class="st17 st18 st19">5.26 Hours </tspan><tspan x="10.9" y="19.2" class="st17 st18 st19">Sleep</tspan></text>
</g>
<g id="dot6">
	<circle class="st10" cx="949" cy="396.5" r="21.9"/>
</g>
<g id="dot7">
	<circle class="st10" cx="1050.8" cy="256.3" r="43.8"/>
</g>
<g id="dot8">
	<circle class="st10" cx="1349.6" cy="412.2" r="43.8"/>
</g>
</svg>
